<?xml version="1.0" encoding="utf-8"?>
<!-- Generator: Adobe Illustrator 22.0.0, SVG Export Plug-In . SVG Version: 6.00 Build 0)  -->
<svg version="1.1" id="Layer_1" xmlns="http://www.w3.org/2000/svg" xmlns:xlink="http://www.w3.org/1999/xlink" x="0px" y="0px"
	 viewBox="0 0 1000 1000" style="enable-background:new 0 0 1000 1000;" xml:space="preserve">
<g>
	<path d="M212.8,17.1c12.8,0,24.8,0.2,36.8-0.1c4.6-0.1,4.7,2.9,5.5,5.7c9.9,32.7,19.7,65.4,29.6,98.1
		c68.9,228.4,137.9,456.9,206.8,685.3c0.6,1.9,1.3,3.8,2.2,6.2c12.4-8.5,25.5-14.5,40-15.7c15.9-1.4,32.1-2.4,48-1.3
		c25.5,1.6,50.8,6.5,76.3,7.3c30,0.9,59.1-7,87.9-14.7c12.5-3.4,25.1-6.6,37.8-9.3c23.4-5,42.1,3.2,56.1,21.9
		c8.3,11,16.3,22.4,16.7,37.1c0.3,11-4.6,20-11,28.4c-11.4,14.8-26.3,25.4-42.1,34.8c-38.5,23-80.5,37.2-123.5,48.7
		c-29.5,7.9-59.3,14-90.1,12.3c-39-2.2-75.5-11.7-105.3-38.7c-15.8-14.3-26-31.8-25-54c0.2-5,2.1-9.9,2.8-14.9
		c0.5-3.8,1.3-8,0.2-11.6c-82.5-273-165.2-545.9-247.9-818.8C214.1,21.7,213.6,19.8,212.8,17.1z M602.9,917.9
		c5-0.4,13.1-0.3,20.8-1.6c13.4-2.3,26.7-5.1,39.8-8.4c39.1-9.7,77.2-22.1,112.3-42.3c11.5-6.6,21.7-15.6,32.3-23.7
		c1.4-1.1,2.9-3.4,2.8-5c-0.9-8.9-12.2-16.9-20.7-14.8c-22.6,5.5-45.1,11.6-67.8,16.8c-38,8.7-76.2,10.5-114.9,3.6
		c-21.1-3.8-42.6-5.8-64.3-3.1c-18.1,2.2-30.2,12.1-38.1,27.6c-1.5,3-1.1,8.1,0.4,11.4c4,9.5,11.9,15.8,20.5,21
		C548.8,913.1,573.9,917.6,602.9,917.9z"/>
	<path d="M706.3,723.4c-39.8,0-72.1-32.4-72-72.3c0.1-39.8,32.5-72,72.4-71.9c39.5,0.1,71.7,32.4,71.7,72
		C778.4,691.1,746.1,723.4,706.3,723.4z M706.6,623.1c-15.8-0.1-28.5,12.3-28.6,27.9c-0.1,15.8,12.2,28.4,27.9,28.5
		c15.8,0.1,28.4-12.2,28.6-27.9C734.7,635.9,722.3,623.2,706.6,623.1z"/>
	<path d="M464.9,621.3c61.4-14,121.1-27.7,182.6-41.8c-2,2.5-2.8,3.7-3.7,4.7c-11.7,11.6-23.3,23.3-35.2,34.7
		c-1.6,1.5-4.1,2.9-6.2,2.9c-44.9,0.2-89.9,0.1-134.8,0.1C467.2,621.9,466.8,621.8,464.9,621.3z"/>
	<path d="M608.4,667.2c-38.4-5-76.2-10-114-15c0-0.3,0-0.7-0.1-1c38.6-4,77.3-8,116.7-12.1C610.1,648.8,609.3,657.8,608.4,667.2z"/>
	<path d="M647.4,710.4c-45.3,0-90.6,0-135.8,0c0-0.6-0.1-1.1-0.1-1.7c8.5-1.1,17-2.3,25.5-3.4c26.4-3.2,52.8-6.4,79.3-9.6
		c1.6-0.2,3.4-0.4,4.7,0.3c9,4.1,17.9,8.5,26.8,12.7C647.7,709.2,647.5,709.8,647.4,710.4z"/>
</g>
</svg>
