<?xml version="1.0" encoding="utf-8"?>
<!-- Generator: Adobe Illustrator 22.0.0, SVG Export Plug-In . SVG Version: 6.00 Build 0)  -->
<svg version="1.1" id="Layer_1" xmlns="http://www.w3.org/2000/svg" xmlns:xlink="http://www.w3.org/1999/xlink" x="0px" y="0px"
	 viewBox="0 0 1000 1000" style="enable-background:new 0 0 1000 1000;" xml:space="preserve">
<style type="text/css">
	.st0{fill:#010000;}
	.st1{fill:#030100;}
</style>
<g>
	<path class="st0" d="M765,143.5c11,23.3,13.2,46.6,10.7,70.6c-4,37.3-18.2,71-37.8,102.5c-21.9,35.2-44.7,69.9-64.9,106.2
		c-2.3,4.1-5.7,5.7-9.8,6.8c-57.5,15.6-116.1,20.3-175.4,17.2c-48.5-2.5-96-10.2-141.7-27.4c-8.5-3.2-14.2-8-18.9-15.9
		c-16.6-28-34.1-55.4-51.2-83.1c-24.3-39.5-41.8-81.2-40.6-128.7c0.4-16.4,3.5-32.3,12.1-49.2c1,2.2,1.3,3.4,2,4.4
		c37.8,52.7,88.7,84.7,152.8,95.1c74.5,12,148.9,12.2,222.9-3.4c56.4-11.9,100.8-43,135.1-88.9C761.5,148.1,762.8,146.5,765,143.5z"
		/>
	<path class="st0" d="M489.1,990.9c-59.5-0.3-120.3-15.8-174.8-53.1c-13.5-9.3-15-12-11.4-27.5c14.5-61.4,29.1-122.8,43.2-184.3
		c1.8-7.8,4.2-8.6,11.6-6.3c60.1,18.9,121.9,24.2,184.6,20.8c39.2-2.1,77.8-7.9,115.5-19.5c4.8-1.5,6-0.2,7,4.3
		c15.1,64,30.5,127.9,45.5,192c3,12.9-8,18-16,22.7c-30.2,17.4-62.8,29.3-96.5,37.8C564,986.4,529.7,990.8,489.1,990.9z"/>
	<path class="st0" d="M355.3,453.4c98.9,28.1,196.8,29.4,296.2,9c-7.1,15.8-13.6,31-19.2,46.6c-8.6,24-3.9,47.4,1,71
		c7.1,34.5,14.5,69,22.2,103.4c1.5,6.9-0.3,9-6.7,10.9c-55.3,16.3-111.8,20.9-169,18c-39.5-2-78.3-8.1-116.2-20.2
		c-7.4-2.4-8.7-5.2-7-12.4c9.4-40.4,17.9-81,25.4-121.8c3.8-21,0.2-40.6-7-60C369.6,483.1,362.6,469.1,355.3,453.4z"/>
	<path class="st1" d="M517.9,15c45.3,0.6,101.4,7.7,154.7,30.5c19.5,8.3,37.6,18.8,52.5,34.2c25.8,26.6,26,57.8,0.1,84.2
		c-23.1,23.6-52.3,36.7-83.3,45.5c-98.5,27.9-196.6,27.1-293.5-7.5c-24.7-8.8-47.5-21.6-65.2-41.8c-21.2-24.2-21.1-52-0.1-76.4
		c8.2-9.5,17.9-17.2,28.6-23.8c19.5-12.2,40.6-20.6,62.6-27.1C414.3,21,458.8,15,517.9,15z M501.1,191.4c41-0.2,76.9-3.7,112.1-12.6
		c29.2-7.4,57.5-17,80.9-36.9c16.9-14.3,16.7-25.5-0.1-40.1c-13.6-11.9-29.5-20-46.3-25.9c-83.3-29.1-167.9-30.3-253.1-9.7
		c-28.1,6.8-55,16.9-77.4,36.1c-16.4,14.1-16.2,25.2,0.1,39.5c13.8,12.1,30,20,47,26.4C410,185.3,457.5,190.8,501.1,191.4z"/>
</g>
</svg>
