<?xml version="1.0" encoding="utf-8"?>
<!-- Generator: Adobe Illustrator 22.0.0, SVG Export Plug-In . SVG Version: 6.00 Build 0)  -->
<svg version="1.1" id="Layer_1" xmlns="http://www.w3.org/2000/svg" xmlns:xlink="http://www.w3.org/1999/xlink" x="0px" y="0px"
	 viewBox="0 0 1000 1000" style="enable-background:new 0 0 1000 1000;" xml:space="preserve">
<style type="text/css">
	.st0{fill:#33A454;}
	.st1{fill:#31A653;}
	.st2{fill:#39A359;}
	.st3{fill:#E9FBED;}
	.st4{fill:#34A853;}
	.st5{fill:#CCF4DE;}
	.st6{fill:#F2FCF6;}
	.st7{fill:#F0FBF3;}
	.st8{fill:#37A652;}
	.st9{fill:#74BE88;}
	.st10{fill:#EFFBF3;}
	.st11{fill:#166E3F;}
	.st12{fill:#A2D0B9;}
	.st13{fill:#186E41;}
	.st14{fill:#1B6C44;}
	.st15{fill:#186D41;}
	.st16{fill:#D7F2E0;}
	.st17{fill:#1A6F3E;}
	.st18{fill:#186D3F;}
	.st19{fill:#F3FBF6;}
</style>
<g>
	<path class="st0" d="M913.3,517.2c30.7-14.7,63,2.2,71.2,35.8c6.7,27,7.5,54.5-3,79.2C967,666,941.2,689.5,902.1,694
		c-43.6,5-77.1-12.8-103.9-45.7c-1.1-1.4-1-3.9-1.4-5.8c-2.2-3-5.5-2.1-8.4-2.1c-48,0.1-96.1-0.3-144.1,0.2
		c-6.5-1.2-10.6-4.1-8.4-11.7c5.3-4,11.5-3.6,17.5-3.6c45.1-0.1,90.3,0,135.4-0.1c10.7,0,20.6,1.9,26.5,11.7
		c11.4,18.9,29.3,28.9,48.6,37.2c21.4,4.8,42.6,8.3,61.9-6.4c44.1-24.8,50.7-71.9,39-113.9c-2.5-9-10-15.1-16.6-21.4
		c-13.6-8.7-17.9-7.9-21.9,4.3c0.9,16.7-3.2,32.3-10.4,47.1c-7.1,14.6-16,20.3-26.7,17.7c-11.2-2.8-17.1-11.3-17.3-27
		c-0.4-46.2-0.1-92.3-0.2-138.5c0-6.6,0.6-13.3-2-19.5c-3.9-9.2-12-10.9-17.3-2.6c-14.8,23.1-37.7,27.2-62,28.1
		c-19.8,0.7-39.6-0.2-59.4,0.3c-29.2,0.7-51.3,19.8-56.5,48c-2.6,13.9,3,25.9,7.8,38.1c6.4,15.9,4.1,19.8-13.5,20.2
		c-30.4,0.5-60.9-0.1-91.3,0.3c-19.7,0.2-22.7,3.1-25.1,22.4c-1.4,11.1-0.8,22.3-0.5,33.4c0.1,4.1,0.7,8.2,0,12.2
		c-1.3,7.6,0.6,18.3-11.4,17.8c-10.7-0.5-9.6-10.4-9.8-17.6c-0.6-23.8-0.2-47.7-0.2-71.5c0-16.2-0.1-32.5,0.1-48.7
		c0.1-11.9,5.7-17.6,17.7-17.8c13.2-0.1,26.4,0.5,39.6,0.3c19-0.3,22.9-7.1,13.5-23.2c-6.6-11.4-13.3-22.8-20-34.1
		c-6.5-11.2-15.1-16.5-28.3-16.6c-20.2-0.2-22.2-2.8-22.5-23.4c-0.1-6.1,0.1-12.2-0.1-18.3c-0.9-39.5-25.6-64.2-64.9-64.8
		c-2.5,0-5.1-0.1-7.6-0.3c-2.6-0.3-5.1-0.8-7.4-2c-3.3-1.8-4-5.2-4.8-8.5c0.2-0.9,0.4-1.8,0.6-2.7c15.6-13.3,32.1-8,48.7-2.5
		c30.4,11.9,55.4,42.7,53,76c-0.4,5.6,0.2,11.2-0.2,16.7c-0.5,7.4,1.6,11.7,10.1,10.9c19.2-1.9,31,7.3,39.2,24.2
		c6.8,13.9,16.7,26.2,23.8,40c13.2,25.6-1.3,50.9-27.6,48.4c-10.6-1-21.3,0.4-31.9-0.4c-10.5-0.7-13.6,2.7-13.9,13.5
		c-0.3,13.7,0.5,20.2,17.9,18.4c24.6-2.5,49.7-0.8,74.5-0.7c19,0,19.5,0,15.6-18.1c-8.4-39.2,20.4-79.4,58.8-86.5
		c22.9-2.7,45.9-2,68.9-1.2c13.2,0.4,26-2,38.1-7.2c4.5-1.2,9.5-2.7,9-8.4c-0.5-6-6.3-5.4-10.6-6.3c-0.5-0.1-1.1,0-1.5-0.2
		c-20.2-12.1-39-10.1-60.9-0.7c-21.3,9.1-45.4-4.1-57.9-24.3c-12.3-20-10.5-42.7,2.8-61.9c6-8.6,12.5-15.5,22-19
		c7.3-2.7,7.6-8.5,8.5-14.5c4-27.7,36.3-46.8,58.1-44.2c21.7,2.6,37,15.3,48.8,32.8c3.1,8.1,0.8,18.1,8.8,24.5
		c34.9,20.8,43.9,50.1,25.3,84.7c-2.7,4.9-3.3,7.3,1.4,10.8c3.9,3,7,7.2,10.4,10.8c3.6,3.8,5.9,8,5.4,13.6
		c-2.6,26.7,0.2,53.4-0.4,80c-0.6,25.2,3.7,50,3.8,75.4c4.9-6.9,5-15.2,6.4-23C903.1,536.2,905.4,525.6,913.3,517.2z"/>
	<path class="st1" d="M445.8,288.1c2.9,1.2,3.7,3.6,3.9,6.4c5.3,5.9,4.2,13.2,4.2,20.2c0.1,67.2-0.5,134.4,0.4,201.6
		c0.3,19.8-2.9,31.2-33.5,22.3c-6.7-4-6.6-10.5-6.8-17.3c-1.7-48.4-9.7-64.5-62.9-61.2c-17.5,1.1-35.6-2.3-51.5,8.5
		c-3,2-7.2,2-10.2,0.1c-17.1-10.7-36.1-8.3-54.7-8.4c-9.1-0.1-18.2,0-27.4,0c-9,0-16.9-1.3-21.3-11c-3.9-8.7-11.7-7.4-18.2-3.9
		c-14.3,7.6-28.4,15.6-42.5,23.6c-7.6,4.3-9.3,11.4-9.3,19.4c0,14.2,0,28.4-0.1,42.6c0,10.9-4.2,17.8-15.9,17.6
		c-12.8-0.2-20.5,6.5-26.3,17.1c-6.9,12.4-14.7,24.3-20.9,37c-5.9,12-2.5,20.9,9.4,21.4c38.9,1.7,77.9,4.6,116.6-3
		c4-0.8,7.3-3.4,11.2-4.7c4.7-1,8.9,0.7,12.9,2.7c9.5,6,20.2,6.1,30.9,6c13.2-0.1,26.4,0.2,39.6-0.1c22-0.5,28.1-6.6,28.5-28.2
		c0.3-14.7-0.4-29.4,0.3-44.1c0.7-14.5,5.1-18.7,18.3-18.6c13.2,0,17.4,4.1,18,18.8c0.6,16.7-0.2,33.5,0.4,50.2
		c0.6,17.2,4.7,21.3,22.1,21.8c20.8,0.6,41.6,0.1,62.4,0.2c29.1,0.1,29.6,0.5,33.5,30.3c-6.3,6.6-11.4,6.5-14.8-2.7
		c-1.3-3.7-2.1-7.5-4.6-10.7c-27.9-0.1-55.8-0.5-83.7-0.3c-15.2,0.1-27.7-3.6-33.7-20c-6.4,8.4-10.8,16.9-21.5,19.1
		c-6.9,1.4-4.1,6.5-1.7,10.7c20.2,35.5,13.7,60.7-20.3,82.1c-16.4,10.3-32.8,10.8-48.3,0.5c-10-6.6-17.1-7.7-27.8-0.9
		c-22.4,14.2-48.8,8.4-67.9-12.5c-15.5-16.9-17.4-46-4.2-67c2.1-3.4,6.8-6.5,5.1-10.3c-2.2-4.8-8-2.5-12.2-2.5
		c-20.8-0.1-41.6,0.8-62.4,0.1c-25.5-0.9-36.7-22.1-24.4-44.3c8.9-16.1,17.5-32.5,27.1-48.2c5.3-8.6,12.6-16.3,23.4-17.8
		c8.1-1.1,9.6-5.5,9.4-12.5c-0.3-10.1-0.4-20.3,0.2-30.4c0.9-15.3,5.3-27.7,21.6-34.8c18.2-8,33.9-20.9,52.6-28.4
		c13.6-5.4,25.1-1.8,32.9,10.2c3.8,5.9,8.4,6.3,14.1,6.2c15.2-0.2,30.5-0.4,45.7-0.3c7.5,0,14.8,0.6,21.9,4.6
		c9.4,5.3,19.5,1.9,29.5-0.3c29.8-6.6,60.1-9.4,88.8,3c15.5,6.7,26.9,19.2,27,38.1c2.8,11.4,0.6,23.1,1.4,34.6
		c0.3,3.7-1.6,9.3,4.5,9.3c5.9,0,4.6-5.5,4.6-9.2c0.1-21.2,0.1-42.4,0.1-63.6c0-49,0-98,0.1-147c0-4.9-1.3-10.1,1.4-14.8
		C442.3,292.9,444.1,290.5,445.8,288.1z"/>
	<path class="st2" d="M437.4,641.9c8.3,2.3,4.2,19.3,17.9,15.1c6.4,1.6,7.9,7.6,10.4,12.3c29.7,54.6,106.1,56.6,143.6,12.4
		c7.4-8.8,10.6-19.5,15.2-29.7c1.8-4,1.4-9.3,6.9-11c2.7,1.2,2.8,4,3.8,6.2c0.1-2.3-1.7-4.4-0.8-6.7c1.5-3.6,4-4.2,7.1-1.8
		c46.6,0,93.2-0.1,139.9,0.1c5.2,0,11.4-2.4,15.3,3.5c-47.6-0.3-95.2-0.5-142.8-0.9c-6.2-0.1-8.2,2.4-9.8,8.5
		c-10.4,39.3-33.7,69.4-74.2,77.4C516.7,738,482,728,451.4,681C443.5,669,438.1,656.4,437.4,641.9z"/>
	<path class="st3" d="M913.3,517.2c-9.9,16.4-5.9,35.8-11.5,53.1c-1.6,4.9-0.5,13.3-8.2,12.1c-5.5-0.9-4.2-8.3-4.2-13.2
		c0-44.2,0-88.3,0-132.5c0-12,0.6-24-3.4-35.6c9.7,0.3,10.4,5.8,8.7,13.7c-5.1,23.4-3.8,47-0.9,70.6c1.1,8.5,1.6,17-0.6,25.5
		c-1.8,6.9-4,14.9,5.1,18.1c8.5,3,6.5-6.5,9.8-9.8C909.1,517.9,911.4,517.8,913.3,517.2z"/>
	<path class="st4" d="M440.5,295.3c0,72.8,0,145.6,0,218.5c0,4,0.1,8.1-0.1,12.1c-0.2,3.7-1.1,7.6-5.4,7.9c-5.4,0.4-6.5-4.1-6.6-8.3
		c-0.1-13.1,0-26.3,0-39.4c6,13.4,0.4,28.5,8,42.1c0.3-5.1,0.8-10.2,0.8-15.3c0.1-65.7,0-131.5,0.2-197.2
		C437.5,308.9,435.5,301.5,440.5,295.3z"/>
	<path class="st0" d="M821.5,416.9c-6.5,8.1-16.2,8.2-24.9,8.4c-27.4,0.6-54.7,0.1-82.1,0c12.8-5.8,26.9-5,39.8-4.3
		C777,422.2,799.3,421.3,821.5,416.9z"/>
	<path class="st5" d="M495.2,282.9c-16.4-2.9-32.9-7.4-48.7,2.5c-0.1-1.3-0.8-3.1-0.3-3.7C456,271.8,484.6,272.7,495.2,282.9z"/>
	<path class="st0" d="M848.7,294.6c-11.2-5.2-7.3-15.8-8.8-24.5C846.1,277.2,844.6,286.9,848.7,294.6z"/>
	<path class="st6" d="M632,640.9c-12.5,55.1-55.5,84.1-112.2,73.7c-28.5-5.2-46.3-24.2-59.9-48.2c-1.7-3-3-6.3-4.5-9.4
		c-1.2-5.2-7.1-8.4-5.6-14.9c2.7-11.7-3.1-14.2-14-13.9c-26.8,0.7-53.7-0.1-80.5,0.3c-14.8,0.2-21.3-6.9-21.4-20.9
		c-0.2-19.2-0.9-38.5-0.1-57.7c0.5-12.6-6.6-11.8-15.3-12.3c-10.1-0.7-13.2,2.9-12.9,12.8c0.6,19.2,0.1,38.5,0.2,57.7
		c0.1,13.2-7.4,19.9-19.4,20.2c-24.3,0.7-48.6,0.3-72.9,0.2c-6,0-10.8-2.3-13.6-8c-6.9-8.4-4.2-18.3-4.5-27.7
		c-0.3-11.6-0.4-23.2,0.1-34.8c0.7-8,4-14,13.1-16.3c-5,0.1-9.2,0.5-12.3,4.4c-2.7,17.6-0.3,35.3-1.2,52.9c-0.3,6.5,1,13.3-4,18.7
		c-3.7,7.3-9.9,9-17.6,9.5c-37,2.4-74,1.1-111,0.9c-16.7-0.1-23-10.2-15.3-25.3C56.3,585,67,568.1,77.5,551
		c4.2-6.9,12.1-7.5,18.9-6.7c12.9,1.5,15.5-4.6,14.6-15.8c-0.8-10.1,0.7-20.4-0.5-30.4c-2.5-19.1,4.9-31.5,22.2-39.4
		c11.7-5.4,22.7-12.4,34.2-18.3c13.7-6.9,20.1-4.6,24.7,10.1c1.9,6.1,5,6.6,9.9,6c19.2-2.3,38.5-1.3,57.7-1.3c0.5,0,1,0,1.5,0
		c18.3-0.4,33.7,15.3,55.9,2.6c15.1-8.6,38.6-2.4,58.4-2.6c22.7-0.1,41,17.6,42.2,40.3c0.7,13.1,1.2,26.2,1.8,39.3
		c7.6,9.2,17.4,6.2,26.8,4.5c8.4-1.5,5.4-8.7,5.4-13.6c0.2-51.7,0.1-103.5,0.1-155.2c0-19.8,0-39.6,0-59.3c0-6.1-0.3-12.3,5-16.8
		c43.5-9.8,81.5,29.2,78.6,69.1c-0.1,2,0,4.1,0,6.1c0,29.4,0,29.8,28.9,31.6c16.9,1,19.2,16.2,26.6,26c7.4,9.9,12.6,21.4,18.7,32.3
		c7.9,14,2.9,23.3-13.6,24.2c-16.2,0.8-32.5,0.8-48.7,0.2c-9.6-0.4-12.1,3.3-12,12.3c0.3,41.6,0.1,83.2,0.3,124.9
		c0,4.7-1.7,11.2,6.3,11.3c8.8,0.1,7-7,7.1-12.2c0.2-16.2-0.2-32.5,0.2-48.7c0.6-25.6,2.6-27.4,28.1-27.4c31.5,0,62.9-0.3,94.4,0.2
		c12,0.2,15.1-0.8,8.1-13.3c-25.5-45.6,2.2-92.7,54.1-93.3c20.8-0.2,41.6-0.7,62.4-0.4c15.3,0.2,28.4-6.5,42.1-11.5
		c4.9-1.8,7.5-6.7,8.7-11.8c2-7.9,7.4-13.2,15-12.2c8.8,1.2,13.8,8,13.9,17.3c0.1,11.7,0.2,23.3,0.3,35c0,40.1,0.1,80.2,0,120.3
		c0,11,2,20.7,14.3,23.5c12.9,2.9,17-6.3,21.8-15.9c8-15.9,10.6-32.5,10.4-49.9c7.7-11.6,17.3-8.3,27.2-3.5
		c15.6,10.3,21.7,25.3,23.3,43.5c3.3,36.7-3.8,69-34.8,92.5c-2.8,2.1-6.3,3.2-9.4,4.8c-20,13.8-42.2,11.1-64.4,8.5
		c-22.6-8.9-43.6-20-55.3-42.8c-2.8-5.5-6.3-6.7-12-6.7c-53.8,0.3-107.5,0.3-161.3,0.4C633.3,632.8,637,638.1,632,640.9z"/>
	<path class="st7" d="M788.2,254.5c21-4.1,42.2,17.1,39.8,36.9c-1.1,9,3.1,11.8,11.4,15.5c39.3,17.5,38,53.3,12.6,74
		c-15.8,12.9-44.6,9.3-56.3-8c-6.8-10-10.1-8.8-17.3-0.4c-14.1,16.6-33.5,20.7-50.2,12.6c-16.3-7.9-27-30.5-22-49.8
		c4-15.3,17-23.5,30.5-28.5c7.3-2.7,8.9-5.3,9.2-12.4C747,268.1,761.7,254.6,788.2,254.5z"/>
	<path class="st4" d="M456.2,294.7c-4,7.3-4.3,15.2-4.3,23.4c0.1,71.1,0.1,142.1,0,213.2c0,6,1,14.7-8,12.5
		c-8.4-2.1-22.5,10.3-25-8.6c2.4,0.6,4.8,1.3,7.3,1.9c18.3,4.1,23.4,0.2,23.4-17.9c0-74.9,0-149.7,0-224.6
		C451.9,294.6,454,294.7,456.2,294.7z"/>
	<path class="st0" d="M864,678.4c22,0.8,43.9,1.3,64.4-8.5C909,687.9,886.5,682.6,864,678.4z"/>
	<path class="st8" d="M632,640.9c0-4.2-2.8-9.3,3.4-11.7c2.1,3.2,4.1,6.4,6.2,9.6c-4.5,0.6-6.8,2.4-3.6,6.9
		c2.9,3.9,5.2,7.8,0.6,11.9c-0.9,0.8-3.2,1.2-3.9,0.6c-3.8-3-1.6-7.4-2.2-11.2C632.2,645,632.1,642.9,632,640.9z"/>
	<path class="st9" d="M949.3,529c-9.4-1.2-19.1-5.4-27.2,3.5C928,520.1,937,518.9,949.3,529z"/>
	<path class="st10" d="M294.4,683.7c-0.3,17.9-9.7,30.3-24.9,38c-15,7.6-33.9,4.9-44.4-7.2c-9.2-10.6-15.2-7.3-23.4,0.7
		c-11.8,11.5-31.7,13.6-46.2,6.1c-13.6-7-25.2-28.5-22.1-42.8c3.7-17,14.8-28.4,30.7-34.4c15.8-6,29.1,1.4,39.9,11.5
		c7.2,6.7,9.5,8.8,17.9,0.6c11.4-11.2,26.3-19.8,43.7-10.9C281.4,653.1,294.6,663.4,294.4,683.7z"/>
	<path class="st1" d="M199.6,553.3c0.1,22.4,0.2,44.8,0.4,67.2c-2.9-0.9-5.8-1.8-8.7-2.7c-0.1-23.9-0.3-47.9-0.4-71.8
		c0-2.9-0.4-6.1,2.9-7.8C199.1,542,195.3,549.2,199.6,553.3z"/>
	<path class="st11" d="M550.9,645.5c9.4-3.7,12-11.3,11.9-20.6c-0.1-16.7,0.8-33.5-0.3-50.2c-0.8-12.7,3.1-16.3,15.9-16.1
		c69.5,0.6,139,0.3,208.5,0.3c3.6,0,7.1-0.1,10.7,0c5.1,0.1,8.8-0.6,8.7-7.3c-0.1-6.4-3.5-7.4-8.7-7.3c-20.8,0-41.6-0.1-62.4-0.2
		c-34.4-0.1-52.6-19.3-50.9-53.8c0.7-13.2,15.2-31.3,28.3-34.8c24.8-6.6,50.2-3.9,75.4-4.7c19.2-0.6,38.4-1.1,55.7-11.7
		c5.2-3.2,9.1-7.5,16-15.4c0,11.6,0,19.7,0,27.8c0,40.6,0,81.2,0.1,121.7c0.1,20.6,10,34.3,27.3,38.1c17,3.7,31.3-5,39.7-24.4
		c5.2-11.9,4.3-24.9,5.8-37.4c0.5-4.4,1.2-8.5,4.9-10c3.9-1.6,6.2,3.4,8.1,5.4c12.8,14.4,17.4,32.4,14.5,50.7
		c-6.6,42.6-32,74.9-80.9,70.3c-26.7-2.5-46.1-17.7-59.7-40.4c-2.3-3.9-3.6-8.3-7.4-11.2c-6.3-3-12.9-1.4-19.4-1.4
		c-51.1-0.2-102.1-0.1-153.2-0.1c-17.5,0-17.4,0-19.9,17.3c-0.4,3-0.7,6.1-2.4,8.7c-8.1,47.5-51.7,70.9-95.2,62
		c-25.2-5.2-58.5-34.4-56.3-72.4c0.7-12.7-3.5-16.8-16-16.4c-28.4,0.7-56.9-0.8-85.2,0.6c-15.5,0.8-18.9-5-18.2-18.8
		c1-19.2,0-38.6,0.4-57.8c0.2-8.9-2.6-13-12.2-12.3c-10.1,0.8-20.3,0.8-30.4,0.1c-11.7-0.9-15,4.6-14.9,15.1
		c0.3,20.3-0.4,40.6,0.2,60.9c0.3,10-2.7,13.1-12.9,12.6c-17.7-0.8-35.5-0.5-53.2,0.2c-9.3,0.3-12.8-3-11.9-12.2
		c0.7-7,0.4-14.2,0.2-21.3c-0.3-11.8-2.4-24.8,16.9-20.2c1.5,0.3,4.6-1.1,5-2.3c3.3-9.3,2.6-19.2,0.4-28.4
		c-1.8-7.3-9.5-3.9-14.6-3.9c-40.8-0.5-40.8-0.4-40.8,40.3c0,12.2-0.2,24.4,0.1,36.5c0.2,7.3-1.6,11.3-10.1,11.3
		c-36-0.3-71.9-0.1-110.5-0.1c10.3-17.3,19.5-33,29.1-48.6c4.8-7.8,13.1-4.9,19.5-4.2c14.2,1.6,17.5-5,16.9-17.6
		c-0.7-13.6,0.8-27.5-0.5-41c-1.3-14.3,2.3-23.7,16.4-29.3c10.4-4.1,19.9-10.6,29.8-16c7.3-4,9.8-1.5,9.4,6.4
		c-0.4,7.5-0.1,15.1-0.1,26.3c23.7-23.5,51.5-19.5,78.5-19.6c12.1,0,22.7,3.7,29,15.2c4.8,8.9,8.4,2.4,12.6-0.8
		c26.3-20.1,56.1-16.9,85.5-11.1c15.5,3.1,18.3,17.2,18.7,30.8c0.5,14.7,0.2,29.4-0.2,44c-0.3,8.8,2.2,13,12,12.3
		c12.1-0.9,24.4-1.1,36.5,0c11.9,1,14.4-3.7,14.3-14.7c-0.3-72.7-0.1-145.5,0.3-218.2c0-6.3-3.3-14.9,3.1-18.4
		c7-3.9,14,1.8,20.7,5.3c22,11.4,32.2,28.9,30.5,53.8c-0.9,12.6,0.1,25.4-0.2,38c-0.2,7.3,1.5,12.5,10,10.7
		c28.1-5.8,45.6,5.2,54.8,32.1c2.3,6.7,12.4,12.7,8.4,19.5c-3.2,5.4-13.2,1.6-20.1,1.8c-14.2,0.3-28.4,0.3-42.6-0.1
		c-6.7-0.2-10.4,1.4-10.3,9.1c0.3,51.2,0.3,102.5,0.5,153.8c0,2.3,1.5,4.6,2.3,6.9C531,646.1,539.5,652,550.9,645.5z"/>
	<path class="st1" d="M199.6,553.3c-9.7-2.1-4.2-9.9-5.8-15.1c8.8-0.5,17.6-1.9,27.8,1.6C215.2,547.9,201.9,542.3,199.6,553.3z"/>
	<path class="st12" d="M550.9,645.5c-13,12.8-20.3,2.3-28-6.7C531.8,642.7,540.6,647.2,550.9,645.5z"/>
	<path class="st13" d="M736.1,373.5c-8.1-8.5-18.4-16.2-16-30c2.3-13.7,17.7-25.6,30-23.9c14,1.9,23.7,13.8,23.4,29.4
		c-0.1,4-0.8,8-1.3,12C763.9,375.6,751.1,377.8,736.1,373.5z"/>
	<path class="st14" d="M827.4,374.8c-14.9,0-26.4-11.9-26.6-27.6c-0.1-13.7,13.7-27.7,27.4-27.8c11.6-0.1,27.2,18,26.8,31.2
		C854.6,362.4,840.5,374.8,827.4,374.8z"/>
	<path class="st15" d="M797.6,269.6c13.1,4.1,18.4,14.2,16.6,26.5c-1.8,12.2-7.8,22.6-22.9,23.5c-15.9,1-26.8-4.5-30.2-18.4
		c-3.2-13.3,1.5-24.4,14.2-31.2C782.7,265.9,790.1,266.3,797.6,269.6z"/>
	<path class="st16" d="M736.1,373.5c15,4.3,25.8-3.5,36.1-12.6C766.6,376.8,753.4,381.4,736.1,373.5z"/>
	<path class="st17" d="M252.6,659c15.4,0.2,27.3,11.5,27.4,26c0,12.5-14.7,26.7-27.8,26.7c-13.4,0-27.2-13.1-27.5-26.3
		C224.3,669.5,235.6,658.8,252.6,659z"/>
	<path class="st18" d="M150.1,684.9c-0.1-18,7-25.7,23.8-26c17.6-0.3,28.5,9.4,28.6,25.5c0.1,14.6-13.1,27.4-28.2,27.3
		C159.6,711.6,150.1,701.2,150.1,684.9z"/>
	<path class="st19" d="M763,510c-10.6,0-21.3,0-31.9,0c-7.5,0-13.1-2.5-13.6-10.8c-0.5-9.1,5.4-12.8,13.3-12.9
		c22.8-0.3,45.6,0.2,68.4-0.1c9.7-0.1,6.9,6.6,7.1,11.5c0.4,6,1.3,12.6-8.4,12.3c-11.6-0.3-23.3-0.1-34.9-0.1
		C763,509.9,763,509.9,763,510z"/>
</g>
</svg>
