<?xml version="1.0" encoding="utf-8"?>
<!-- Generator: Adobe Illustrator 22.0.0, SVG Export Plug-In . SVG Version: 6.00 Build 0)  -->
<svg version="1.1" id="Layer_1" xmlns="http://www.w3.org/2000/svg" xmlns:xlink="http://www.w3.org/1999/xlink" x="0px" y="0px"
	 viewBox="0 0 1000 1000" style="enable-background:new 0 0 1000 1000;" xml:space="preserve">
<style type="text/css">
	.st0{fill:#FB3232;}
	.st1{fill:#FE3333;}
</style>
<g>
	<path class="st0" d="M367.5,952c-42.7,9.2-85.2-0.4-85.2-0.4c-93.6-21-154.3-92.9-159.1-188.7c-2.1-42.9,6.9-83.8,22.3-123.5
		c2.3-6,2.1-8.9-4-12.4c-33-18.9-59.9-44.4-80-76.8c-14.6-23.5-26-48.7-29.5-76.2c-6-47.9,0.1-80.7,0.1-80.7
		c14.2-68.3,51.4-119.1,115.1-148.8c40.4-18.8,83.4-22.9,127.3-17.9c7.5,0.8,8.6-1.7,10.2-7.7c22.5-90.1,73.2-153.2,167.4-174.6
		c37.4-6.4,78.7,0.6,78.7,0.6c30.2,6.6,57.8,18.9,82.5,37.6c45.8,34.8,73,81.7,87.9,136.3c1.5,5.7,2.9,7.5,9.5,6.4
		c61.7-10.7,120.1-2.8,172.4,33.8c46.9,32.8,75.2,78.2,86.7,134.2c6,42,0,77.5,0,77.5c-6,30.6-18.3,58.5-36.9,83.6
		c-23.6,31.9-54,55.7-89.1,73.4c-6.3,3.2-6.7,5.7-3.5,11.2c2.8,4.8,4.8,10.1,6.9,15.2c24.6,61.2,27.6,122.2-4.9,181.5
		c-29.6,54-75.9,88.5-134.6,104.6c-81.5,22.4-153.9,7.8-211.2-58.7c-3-3.5-4.5-3.4-7.4,0c-32.5,37.2-72.9,60.9-121.4,70.7
		 M248.1,253.1c-24-0.1-43.9,2.2-63.4,7.7C92.3,286.6,38.1,382.5,61.8,478.2c15.8,63.6,55.6,107,113.6,135.1
		c9.8,4.8,9.8,4.8,5.5,14.5c-18.2,40.7-30.7,82.8-29.9,127.9c0.8,44.2,14.2,84.1,44.9,116.7c54,57.3,140.7,71.8,212.4,36.5
		c34.5-17,60.5-43.2,81.1-75.1c3.3-5,5.4-6.5,8.7,0c3.3,6.3,7.2,12.2,11.2,18.1c22.7,33.7,53.6,56.3,93.3,64.9
		c64.6,14,122.7-2,172.8-44.1c51.2-42.9,70.3-98.6,58.4-164.4c-5.4-30.1-17.8-57.6-33.4-83.7c-3-4.9-3.1-7.3,3-9.6
		c16.8-6.5,33.1-14.3,48.2-24.2c52.4-34,86.6-79.9,92.5-143.8c7.9-86.2-48.4-167.4-131.9-190.7c-41.4-11.5-82.4-8.7-123.3,2.9
		c-5.9,1.7-8.2,1-9.3-5.7c-5.6-32.2-15.3-63.1-32.6-91.2c-33.6-54.5-81.1-88.4-145.7-92.5c-69.4-4.4-122.7,25.7-160.3,83.7
		c-19.8,30.4-29.2,64.5-34.2,100c-0.7,5.3-2.1,6.6-7.6,5.5C281.2,255.3,262.8,252.9,248.1,253.1z"/>
	<path class="st1" d="M230.5,593.7c-0.1,8,2.5,9.5,9.9,9.4c49.3-0.3,98.6-0.1,147.9-0.3c6.3,0,8.1,1.6,8.1,8
		c-0.3,48.3-0.1,96.6-0.2,144.8c0,5.5,0.7,8,7.2,7.9c61.2-0.3,122.5-0.2,183.7,0c6.2,0,7.6-1.9,7.5-7.8c-0.2-48,0-96-0.3-144.1
		c0-6.7,1.3-9,8.6-8.9c47,0.4,94,0.1,141,0.3c6.1,0,8.2-1.1,8.1-7.8c-0.3-62.5-0.3-125,0-187.5c0-6.4-1.7-8-8-7.9
		c-47.3,0.3-94.5,0-141.8,0.3c-6.3,0-8-1.5-8-7.9c0.3-48.3,0-96.6,0.3-144.8c0-6.5-1.9-7.9-8.1-7.9c-61.2,0.2-122.5,0.2-183.7,0
		c-6.4,0-7.9,1.8-7.9,8c0.3,47.3,0.1,94.5,0.1,141.8c0,10.6,0,10.6-10.3,10.6c-49.3,0-98.6,0.1-147.9-0.1c-6.1,0-8.2,1.2-8.1,7.8
		c0.4,31,0.2,62,0.2,93L230.5,593.7z"/>
</g>
</svg>
