<?xml version="1.0" encoding="utf-8"?>
<!-- Generator: Adobe Illustrator 22.0.0, SVG Export Plug-In . SVG Version: 6.00 Build 0)  -->
<svg version="1.1" id="Layer_1" xmlns="http://www.w3.org/2000/svg" xmlns:xlink="http://www.w3.org/1999/xlink" x="0px" y="0px"
	 viewBox="0 0 1000 1000" style="enable-background:new 0 0 1000 1000;" xml:space="preserve">
<style type="text/css">
	.st0{fill:#393939;}
	.st1{fill:#494949;}
	.st2{fill:#535353;}
	.st3{fill:#CCCCCC;}
	.st4{fill:#898989;}
	.st5{fill:#595959;}
</style>
<g>
	<path class="st0" d="M569.2,459c0.4,11.3,0.9,22.6,1.2,33.9c0.8,28,1.2,56-0.4,83.9c-0.8,13.8-6,26.2-14.7,37
		c-2.1,2.6-2.7,5.1-2.5,8.2c1.2,17.7,6.4,34.3,13.7,50.3c7.1,15.5,16.4,29.7,26.5,43.4c0.7,3.2-1.8,4-3.9,4.8
		c-8.1,3.2-16.5,5.2-24.8,7.5c-22.9,6.2-46.1,10.6-69.6,13c-20.9,2.1-41.9,1.2-62.8-0.4c-17.7-1.3-35.5-2.8-53.2-4.3
		c-18.6-1.6-37.1-3.6-55.6-5.5c-16.7-1.7-33.4-3.4-50.1-5.6c-2.8-0.4-5.3-1-5.3-4.6c-0.1-4.9,3.4-8.2,5.5-12.1
		c7.4-14.1,13.5-28.6,18-43.8c2.6-8.6,3-17.3,1.3-26.2c-0.6-2.9-1.6-5.6-4.4-6.9c-21.9-10.6-31.2-30.5-38-52
		c-7.2-23-10.3-46.7-12.6-70.6c-1.7-18.4-2-36.9-2.5-55.3c-0.5-18-0.4-36.1-0.4-54.1c-0.1-29.2,5.3-57.4,18-83.8
		c11.6-24,27.9-44.1,50.7-58.4c0.4-0.3,0.9-0.5,1.3-0.8c1.3-1.1,3.8-1.6,3.4-3.8c-0.3-1.9-2.4-2.1-3.9-2.7
		c-19.5-9-37.7-19.8-52.6-35.6c-9.8-10.5-17.3-21.8-17.9-36.6c0-0.7,0-1.3-0.5-1.9c0-7,0-14,0-21c2-26.6,16.9-46.4,34.1-64.9
		c24.4-26.5,53.1-47.4,84.9-64.1c13.9-7.3,28.4-13.3,43.6-17.1c8.3-2.1,17-1.5,25.4-2.9c9.3,0,18.7,0,28,0c3.9,2.1,8.3,1.8,12.4,2.8
		c37.9,8.8,65.7,31.3,86.1,63.6c3.7,5.9,2,9.6-4.7,11.5c-0.9,0.3-2,0-2.7,1c0.3,1-0.2,1.5-1.1,1.8c-2.9,0.2-4.1-2.1-5.2-4
		c-4.6-7.6-11.1-11.6-19.7-14c-21.9-5.9-44-9.4-66.6-8.1c-13.4,0.7-26.3,3.7-38.9,8.5c-4.7,1.8-6.9,5.3-8.6,9.7
		c-8.8,23-14.9,46.5-16.7,71.2c-1.8,24.6,1.3,48.1,11.7,70.6c8.6,18.6,21.8,33.3,37.9,45.6c4.2,3.2,8.9,5.8,13.2,8.9
		c8.7,6.3,18.4,7.1,28.6,6.1c11.9-1.2,22.6-5.3,32.6-11.7c1.7-1.1,3.6-2.9,5.7-0.5c5.7,5.4,11,11.1,15,18c0.2,3.7-2.7,3.2-4.8,3.4
		c-12.1,1.4-24.2,1.5-36.3,3c-9.2,1.2-18.6,1.8-27.7,3.4c-13.4,2.3-26.8,2.2-40.3,0.8c-0.8-0.1-1.7-0.2-2.5-0.1
		c-19.2,0.6-38.3-0.8-57.4-1.3c-17.4-0.5-34.9-0.3-52.4-1.8c-5.5-0.5-10,1.5-14.2,5C267,320.2,257.7,347,262.8,379
		c4.7,29.6,18,55.6,35,79.8c2.9,4.1,5.3,4.5,11.5,2c16.4-6.6,32.9-12.9,49.3-19.5c27.1-10.8,54.3-21.3,81.3-32.1
		c1.1-0.4,2.2-0.9,3.3-1.1c18.7-3.8,35.7-12.6,53.7-18.7c4.6-1.6,8.7-4.2,13.1-6.2c1.9-0.9,3.8-2.3,6.1-1.5c1.8,0.9,1.9,2.4,1.6,4.2
		c-0.8,5.9,0.7,8.6,6.1,10.9c4.3,1.8,8.9,2.5,13.6,2.7c7.3,0.4,14.5-0.6,21.8-1c1.8-0.1,3.7-0.6,5,1.3c2.8,3.5,2.5,7.8,3,11.8
		c1.6,13.4,2.9,26.9,3.8,40.5C571.2,454.6,570.8,457,569.2,459z"/>
	<path class="st1" d="M269,719.8c0.4,2.6,2.2,2.9,4.3,3.1c28.6,3,57.1,6.2,85.7,9c25.8,2.5,51.6,4.7,77.4,6.8
		c35.2,3,70.1,0,104.5-7.6c14.3-3.2,28.4-7,42.5-11.2c3.3-1,6.7-1.9,9.5-4.2c2,1.4,4,3,6.1,4.3c46,27.5,92.7,53.8,141.1,76.9
		c16.2,7.8,32,16.4,45.8,28.2c16.1,13.8,26,31,28.9,52c0.1,1,0,2,1,2.6c0,8.7,0,17.3,0,26c-1.5,6.7-1.2,13.9-6,19.5
		c-4.4,5.1-8.9,9.9-14.4,13.8c-10.6,7.5-22.3,12.6-34.6,16.5c-25.4,7.9-51.5,11.9-78,13.8c-11.5,0.8-22.9,1.6-34.4,2
		c-3.2,0.1-6.2,1.2-9.1,2.4c-20.6,8.8-42.1,14.4-64.4,16.6c-11.7,1.2-23.4,1.4-35.1,1.9c-1.6,0.1-3.3-0.5-4.9,0.5
		c-18.7,0-37.3,0-56,0c-17.5-1.9-34.9-4.7-52.1-8.3c-43.7-9.1-87.4-18.1-130.8-28.9c-17-4.2-33.9-8.5-50.3-15
		c-0.5-0.2-0.9-0.4-1.4-0.5c-12-4-12.3-11.7-7.1-21.9c4.1-8,10.3-14.7,17.3-20.5c1.5-1.3,3-2.6,4.5-4c5.1-4.9,5.6-7.5,0.7-12.7
		c-18.4-19.6-20.7-43.4-18.6-68.6c2.4-29.8,10.7-58.2,21.1-86.1c0.6-1.7,1.3-3.4,2.3-5C265.6,719.7,266.8,718.4,269,719.8z"/>
	<path class="st2" d="M516,383c-13.7,7.4-28.1,12.9-42.8,17.9c-43.7,14.8-86.4,32-129.2,49.1c-13,5.2-26.1,10.1-39.1,15.3
		c-3.2,1.3-5.1,0.9-7.1-1.9c-19.5-27.5-35-56.9-38.4-91c-3.2-33.1,9.6-59.4,36.6-78.8c1.9-1.4,4-1.6,6.2-1.5
		c27.3,0.6,54.5,1.6,81.8,2.2c20.6,0.5,41.2,1.9,61.8,1.5c11.2-0.2,22.5-2.5,33.7-4.1c14.3-2,28.8-2.5,43.2-3.7
		c1.8-0.2,3.7,0,5.3-1.1c1.9,1.6,4.1,1.1,6.2,1.1c19.5-0.1,38.9,0.8,57.9,6c6.1,1.7,12.2,3.5,17,7.9c0.5,4.1-2.9,5.8-5.3,7.9
		c-5.8,5.2-11.6,10.5-17.5,15.5c-6.6,5.6-12.6,11.9-18.7,18c-12.7,12.7-26.2,24.6-40.5,35.4C523.9,381.1,520.6,383.8,516,383z"/>
	<path class="st3" d="M513,268.9c-2.4,1.4-4.9,2.8-7.3,4.3c-15.1,9.5-31.4,12.4-48.9,9.8c-1.5-0.2-3-0.6-4.3-1.3
		c-39.9-21.8-65.7-53.7-71.3-99.9c-3.7-30.9,1.6-60.7,11.2-90c1.9-5.7,4.4-11.2,6.2-16.9c1.4-4.2,4.1-6.4,8.1-8
		c26.8-10.6,54.3-11,82.2-6.4c10,1.6,19.8,4.4,29.7,6.9c6.4,1.6,11.1,4.8,14.5,10.4c1.7,2.8,3.8,5.5,5.7,8.2
		c4.2,3.2,5.3,8.4,7.7,12.6c0.8,1.4,1.2,3.1,2.3,4.4c6.3,13.6,8.5,28.2,10.1,43c2.2,19.1,0.4,37.8-4.5,56.3
		C547.6,228.8,534.5,251.4,513,268.9z"/>
	<path class="st1" d="M516,383c20.6-12.9,38.1-29.5,55.1-46.6c12.1-12.2,25.3-23.1,38.1-34.5c20.9-5.2,41.3-3.3,61.1,4.9
		c4.8,2,9.2,4.6,13.1,8.1c6.8,6.2,9.5,13.5,8.1,22.8c-1.5,9.9-4.6,19.1-10.6,27.1c-4.9,8.3-12.7,12.9-21.3,16.4
		c-17.6,7-36.1,10.4-54.5,14c-11.8,2.2-23.5,4.8-35.3,6.5c-2.4,0.3-4.6,0.4-6.4-1.6c-11.7,1.9-23.4,3-35.1,0.8
		c-2.3-0.4-4.5-1.2-6.6-2.2C514.4,395.2,513,391.2,516,383z"/>
	<path class="st4" d="M563.3,400.1c29.5-5.1,59.1-9.6,87.8-18.5c11.1-3.4,21.3-8.5,29.7-16.7c-2.7,7.8-8.4,13.5-13.7,19.3
		c-19,20.5-41.3,37-64.1,53c-9.2,6.5-18.8,12.6-28.2,18.8c-1.8,1.2-3.8,2-5.7,3C567.5,439.3,565.8,419.7,563.3,400.1z"/>
	<path class="st5" d="M549,103c-4.4-5.1-6.6-11.4-10-17.1c0.4-0.4,0.7-0.7,1.1-1.1C544.2,90.3,547.1,96.4,549,103z"/>
</g>
</svg>
